<?xml version="1.0" encoding="utf-8"?>
<!-- Generator: Adobe Illustrator 20.0.0, SVG Export Plug-In . SVG Version: 6.00 Build 0)  -->
<svg version="1.1" id="Layer_1" xmlns="http://www.w3.org/2000/svg" xmlns:xlink="http://www.w3.org/1999/xlink" x="0px" y="0px"
	 viewBox="0 0 537.7 166.2" class="va-icon-vuestic" style="enable-background:new 0 0 537.7 166.2;" xml:space="preserve">
<style type="text/css">
	.st0{fill:url(#SVGID_1_);}
	.st1{fill:url(#SVGID_2_);}
	.st2{opacity:0.8;fill:url(#SVGID_3_);enable-background:new    ;}
	.st3{opacity:0.8;fill:url(#SVGID_4_);enable-background:new    ;}
	.st4{opacity:0.8;fill:url(#SVGID_5_);enable-background:new    ;}
	.st5{fill:url(#SVGID_6_);}
	.st6{opacity:0.8;fill:url(#SVGID_7_);enable-background:new    ;}
	.st7{opacity:0.8;fill:url(#SVGID_8_);enable-background:new    ;}
	.st8{opacity:0.3;fill:url(#SVGID_9_);enable-background:new    ;}
	.st9{opacity:0.3;fill:url(#SVGID_10_);enable-background:new    ;}
	.st10{opacity:0.3;fill:url(#SVGID_11_);enable-background:new    ;}
	.st11{opacity:0.3;fill:url(#SVGID_12_);enable-background:new    ;}
	.st12{fill:url(#SVGID_13_);}
	.st13{opacity:0.3;fill:url(#SVGID_14_);enable-background:new    ;}
	.st14{opacity:0.8;fill:url(#SVGID_15_);enable-background:new    ;}
	.st15{fill:url(#SVGID_16_);}
	.st16{fill:url(#SVGID_17_);}
	.st17{fill:#FFFFFF;}
	.st18{fill:#181C1D;}
	.st19{fill:#30B99E;}
</style>
<title>Fluentbit logo concept</title>
<g>
	<g>
		
			<linearGradient id="SVGID_1_" gradientUnits="userSpaceOnUse" x1="164.6583" y1="112.1191" x2="-11.7253" y2="47.9207" gradientTransform="matrix(0.9642 0.2653 0.2653 -0.9642 12.1812 144.7119)">
			<stop  offset="0.2986" style="stop-color:#0097CE"/>
			<stop  offset="0.3791" style="stop-color:#0999C5"/>
			<stop  offset="0.5119" style="stop-color:#229DAD"/>
			<stop  offset="0.6469" style="stop-color:#42A38F"/>
			<stop  offset="0.7352" style="stop-color:#5DAD82"/>
			<stop  offset="0.9239" style="stop-color:#A1C661"/>
			<stop  offset="1" style="stop-color:#BED153"/>
		</linearGradient>
		<path class="st0" d="M196.8,37.7c-4.3-0.6-13.8-0.8-32.6,3.1c-2.3,0.5-4.5,0.8-6.8,0.7c-2.4-0.2-5-0.9-7.3-1.6
			c-10.3-3.5-18.8-2.4-23.8,0.2l0,0c-2.8,1.5-5,3.4-7.4,6.6c-3.1,4.2-9.6,17-18.5,20.4l0,0c-5,3.2-10.4,6.5-15.1,11.2
			c-3,3.1-3.8,10.4-11.7,17.5l0,0l0,0l0,0c-8.8,12.8-18.9,22.1-29.2,28.9C29.5,135.1,17,138.3,17,138.3s33.1,9.1,69.4-7.9
			c27.6-13,41.9-38.3,45.2-43.9l18-30.6c1.6-2.8,4.5-6.4,7.2-7.8c0.9-0.5,1.7-0.8,1.9-1c2-1,4.1-1.8,6.2-2.6
			c12.6-4.5,25.7-4.9,31.8-5.6C197.5,38.7,197.4,37.8,196.8,37.7z"/>
		
			<linearGradient id="SVGID_2_" gradientUnits="userSpaceOnUse" x1="-37.6248" y1="106.9508" x2="150.2525" y2="106.9508" gradientTransform="matrix(0.9642 0.2653 0.2653 -0.9642 12.1812 144.7119)">
			<stop  offset="8.199139e-02" style="stop-color:#3D65AF"/>
			<stop  offset="0.2305" style="stop-color:#2372B8"/>
			<stop  offset="0.5058" style="stop-color:#00B8BB"/>
		</linearGradient>
		<path class="st1" d="M196.8,37.7c-4.3-0.6-13.8-0.8-32.6,3.1c-2.3,0.5-4.5,0.8-6.8,0.7c-2.4-0.2-5-0.9-7.3-1.6
			c-10.6-3.5-18.7-2.6-23.8,0.2c-2.8,1.5-5,3.4-7.4,6.6c-3.1,4.2-9.6,17-18.5,20.4l0,0c-10-9.4-18.8-17.3-27.3-24.3
			c-4.8-3.8-9.5-7.4-13.5-10c-10.2-7-20.5-13.3-30.8-18.2c-4.6-2.1-9.4-4-14.7-6c-2.3-0.7-3.6,0.4-4,2.2c-0.2,0.6-0.4,2.2,0.6,5
			c2.3,6.2,5.7,13.3,9.8,20.5l0,0c1.5,2.7,3.2,5.5,5,8.3c8.3,13,18.7,26.1,29.3,36.4c2.3,2.2,4.5,4.2,6.9,6.1c3,2.5,6.1,4.8,9,6.7
			c0.3,0.2,1.8,1.1,2.8,1.7c2,1.1,4.7,2.4,6.4,3.1c8.4,3.7,15.7,4.8,22.1,4.7c11.1,0.3,20.1-3.2,24.5-9.1c1.8-2.5,3.6-5.1,5.1-7.8
			l18-30.6c1.6-2.8,4.5-6.4,7.2-7.8c0.9-0.5,1.7-0.8,1.9-1c1.9-0.9,1.9-0.6,3.9-1.4c12.8-4.5,28.1-6.1,34.2-6.8
			C197.5,38.7,197.4,37.8,196.8,37.7z"/>
		
			<linearGradient id="SVGID_3_" gradientUnits="userSpaceOnUse" x1="-37.6139" y1="127.8167" x2="64.3964" y2="127.8167" gradientTransform="matrix(0.9642 0.2653 0.2653 -0.9642 12.1812 144.7119)">
			<stop  offset="0.1297" style="stop-color:#000000"/>
			<stop  offset="0.3277" style="stop-color:#00334B"/>
			<stop  offset="0.5276" style="stop-color:#006190"/>
			<stop  offset="0.6723" style="stop-color:#007FBB"/>
			<stop  offset="0.7457" style="stop-color:#008ACC"/>
		</linearGradient>
		<path class="st2" d="M9.9,11.9c0-0.3,0.1-0.6,0-0.8C10,11.3,10,11.6,9.9,11.9z"/>
		
			<linearGradient id="SVGID_4_" gradientUnits="userSpaceOnUse" x1="-37.6139" y1="131.4579" x2="64.3964" y2="131.4579" gradientTransform="matrix(0.9642 0.2653 0.2653 -0.9642 12.1812 144.7119)">
			<stop  offset="0.1297" style="stop-color:#000000"/>
			<stop  offset="0.3277" style="stop-color:#00334B"/>
			<stop  offset="0.5276" style="stop-color:#006190"/>
			<stop  offset="0.6723" style="stop-color:#007FBB"/>
			<stop  offset="0.7457" style="stop-color:#008ACC"/>
		</linearGradient>
		<path class="st3" d="M18.3,10L18.3,10c-0.2-0.1-0.3-0.1-0.5-0.1c0.3,0.1,0.6,0.3,0.9,0.4C18.7,10.2,18.5,10.1,18.3,10z"/>
		
			<linearGradient id="SVGID_5_" gradientUnits="userSpaceOnUse" x1="-37.6139" y1="131.0589" x2="64.3964" y2="131.0589" gradientTransform="matrix(0.9642 0.2653 0.2653 -0.9642 12.1812 144.7119)">
			<stop  offset="0.1297" style="stop-color:#000000"/>
			<stop  offset="0.3277" style="stop-color:#00334B"/>
			<stop  offset="0.5276" style="stop-color:#006190"/>
			<stop  offset="0.6723" style="stop-color:#007FBB"/>
			<stop  offset="0.7457" style="stop-color:#008ACC"/>
		</linearGradient>
		<path class="st4" d="M21.4,11.3c-0.1,0-0.3-0.1-0.4-0.1c0.3,0.1,0.6,0.3,0.8,0.3C21.6,11.4,21.5,11.3,21.4,11.3z"/>
		
			<linearGradient id="SVGID_6_" gradientUnits="userSpaceOnUse" x1="-22.3552" y1="110.8081" x2="64.3342" y2="110.8081" gradientTransform="matrix(0.9642 0.2653 0.2653 -0.9642 12.1812 144.7119)">
			<stop  offset="0.1297" style="stop-color:#2483C5"/>
			<stop  offset="0.1672" style="stop-color:#2486C7"/>
			<stop  offset="0.676" style="stop-color:#29B1DF"/>
			<stop  offset="0.9352" style="stop-color:#2BC2E8"/>
		</linearGradient>
		<path class="st5" d="M80.1,68.9c7.1,0.9,14,0.4,20.2-2l0,0c-6-5.6-11.7-10.7-17-15.3l0,0c-2.7-2.3-5.3-4.6-7.8-6.7
			c-0.1-0.1-0.3-0.2-0.3-0.3c-0.7-0.6-1.3-1.1-1.9-1.6c-0.2-0.1-0.3-0.3-0.4-0.3c-4.8-3.8-9.5-7.3-13.3-10
			c-10.2-6.9-20.4-13.3-30.7-18.2c-0.9-0.5-1.8-0.8-2.8-1.3c-0.3-0.1-0.6-0.3-0.8-0.3C65.1,34.4,77.8,53.9,80.1,68.9z"/>
		
			<linearGradient id="SVGID_7_" gradientUnits="userSpaceOnUse" x1="-37.6139" y1="123.0783" x2="64.3964" y2="123.0783" gradientTransform="matrix(0.9642 0.2653 0.2653 -0.9642 12.1812 144.7119)">
			<stop  offset="0.1297" style="stop-color:#000000"/>
			<stop  offset="0.3277" style="stop-color:#00334B"/>
			<stop  offset="0.5276" style="stop-color:#006190"/>
			<stop  offset="0.6723" style="stop-color:#007FBB"/>
			<stop  offset="0.7457" style="stop-color:#008ACC"/>
		</linearGradient>
		<path class="st6" d="M11.4,17.7L11.4,17.7c-0.3-0.6-0.5-1.3-0.8-2C10.9,16.3,11.1,17,11.4,17.7z"/>
		
			<linearGradient id="SVGID_8_" gradientUnits="userSpaceOnUse" x1="-37.3188" y1="127.2182" x2="-37.3188" y2="127.2182" gradientTransform="matrix(0.9642 0.2653 0.2653 -0.9642 12.1812 144.7119)">
			<stop  offset="0.1297" style="stop-color:#000000"/>
			<stop  offset="0.3277" style="stop-color:#00334B"/>
			<stop  offset="0.5276" style="stop-color:#006190"/>
			<stop  offset="0.6723" style="stop-color:#007FBB"/>
			<stop  offset="0.7457" style="stop-color:#008ACC"/>
		</linearGradient>
		<path class="st7" d="M9.9,12.2L9.9,12.2L9.9,12.2z"/>
		
			<linearGradient id="SVGID_9_" gradientUnits="userSpaceOnUse" x1="-37.3188" y1="127.318" x2="-37.3188" y2="127.318" gradientTransform="matrix(0.9642 0.2653 0.2653 -0.9642 12.1812 144.7119)">
			<stop  offset="0" style="stop-color:#682C90"/>
			<stop  offset="0.496" style="stop-color:#817CB9"/>
			<stop  offset="1" style="stop-color:#FFFFFF"/>
		</linearGradient>
		<path class="st8" d="M9.9,12.2c0-0.1,0-0.1,0.1-0.2C10,12.1,10,12.1,9.9,12.2z"/>
		
			<linearGradient id="SVGID_10_" gradientUnits="userSpaceOnUse" x1="49.1508" y1="131.7073" x2="-2.5184" y2="131.7073" gradientTransform="matrix(0.9642 0.2653 0.2653 -0.9642 12.1812 144.7119)">
			<stop  offset="0" style="stop-color:#682C90"/>
			<stop  offset="0.496" style="stop-color:#817CB9"/>
			<stop  offset="1" style="stop-color:#FFFFFF"/>
		</linearGradient>
		<path class="st9" d="M14.2,8.5c1.3,0.5,2.5,0.9,3.7,1.4C16.6,9.4,15.4,8.9,14.2,8.5z"/>
		
			<linearGradient id="SVGID_11_" gradientUnits="userSpaceOnUse" x1="49.1508" y1="125.6221" x2="-2.5184" y2="125.6221" gradientTransform="matrix(0.9642 0.2653 0.2653 -0.9642 12.1812 144.7119)">
			<stop  offset="0" style="stop-color:#682C90"/>
			<stop  offset="0.496" style="stop-color:#817CB9"/>
			<stop  offset="1" style="stop-color:#FFFFFF"/>
		</linearGradient>
		<path class="st10" d="M9.9,12.2c0,0.8,0.2,2,0.7,3.5l0,0l0,0C10.1,14.2,9.9,13,9.9,12.2z"/>
		
			<linearGradient id="SVGID_12_" gradientUnits="userSpaceOnUse" x1="49.1508" y1="130.7596" x2="-2.5184" y2="130.7596" gradientTransform="matrix(0.9642 0.2653 0.2653 -0.9642 12.1812 144.7119)">
			<stop  offset="0" style="stop-color:#682C90"/>
			<stop  offset="0.496" style="stop-color:#817CB9"/>
			<stop  offset="1" style="stop-color:#FFFFFF"/>
		</linearGradient>
		<path class="st11" d="M24.7,12.7c0.2,0.1,0.4,0.2,0.6,0.3l0,0c-1.1-0.5-2.3-1-3.5-1.5c0.4,0.2,0.7,0.3,1.1,0.5
			C23.5,12.2,24.1,12.4,24.7,12.7z"/>
		
			<linearGradient id="SVGID_13_" gradientUnits="userSpaceOnUse" x1="-34.4258" y1="92.9016" x2="48.3669" y2="92.9016" gradientTransform="matrix(0.9642 0.2653 0.2653 -0.9642 12.1812 144.7119)">
			<stop  offset="0.1297" style="stop-color:#3B67AD"/>
			<stop  offset="0.5697" style="stop-color:#227CAA"/>
			<stop  offset="0.9352" style="stop-color:#118AA8"/>
		</linearGradient>
		<path class="st12" d="M36.5,47.9c-10.7-8.6-20.8-20.6-25.1-30.1c10,25.3,36,61.2,59.2,76c0.4,0.3,1.8,1.1,2.9,1.7
			c3-4.6,8.5-14.1,6.6-26.6C65.8,67,50.4,59.2,36.5,47.9z"/>
		
			<linearGradient id="SVGID_14_" gradientUnits="userSpaceOnUse" x1="49.1508" y1="131.2584" x2="-2.5184" y2="131.2584" gradientTransform="matrix(0.9642 0.2653 0.2653 -0.9642 12.1812 144.7119)">
			<stop  offset="0" style="stop-color:#682C90"/>
			<stop  offset="0.496" style="stop-color:#817CB9"/>
			<stop  offset="1" style="stop-color:#FFFFFF"/>
		</linearGradient>
		<path class="st13" d="M21,11.2c-0.7-0.3-1.4-0.6-2.1-0.9c0.1,0,0.2,0.1,0.3,0.1C19.7,10.6,20.3,10.9,21,11.2z"/>
		
			<linearGradient id="SVGID_15_" gradientUnits="userSpaceOnUse" x1="-37.6181" y1="111.2764" x2="64.3922" y2="111.2764" gradientTransform="matrix(0.9642 0.2653 0.2653 -0.9642 12.1812 144.7119)">
			<stop  offset="0.1297" style="stop-color:#000000"/>
			<stop  offset="0.3277" style="stop-color:#00334B"/>
			<stop  offset="0.5276" style="stop-color:#006190"/>
			<stop  offset="0.6723" style="stop-color:#007FBB"/>
			<stop  offset="0.7457" style="stop-color:#008ACC"/>
		</linearGradient>
		<path class="st14" d="M36.5,47.9c13.9,11.3,29.3,19,43.6,20.9c-2.3-14.9-15-34.5-54.8-55.8c-0.2-0.1-0.5-0.2-0.6-0.3
			c-0.6-0.3-1.2-0.5-1.7-0.8c-0.4-0.2-0.7-0.3-1.1-0.5c-0.3-0.1-0.6-0.3-0.8-0.3c-0.6-0.3-1.2-0.5-1.9-0.7c-0.1,0-0.2-0.1-0.3-0.1
			c-0.3-0.1-0.6-0.3-0.9-0.4c-1.2-0.4-2.4-1-3.7-1.4c-2.3-0.7-3.6,0.4-4.1,2.1c0,0.1-0.1,0.3-0.1,0.6c-0.1,0.2,0,0.5,0,0.8
			c0,0.1,0,0.1-0.1,0.2l0,0c0,0.8,0.2,2,0.7,3.5l0,0c0.2,0.7,0.5,1.4,0.8,2.1C15.7,27.3,25.9,39.3,36.5,47.9z"/>
		
			<linearGradient id="SVGID_16_" gradientUnits="userSpaceOnUse" x1="-37.6181" y1="111.2764" x2="45.3803" y2="111.2764" gradientTransform="matrix(0.9642 0.2653 0.2653 -0.9642 12.1812 144.7119)">
			<stop  offset="0.1297" style="stop-color:#3A67B0"/>
			<stop  offset="0.5622" style="stop-color:#357FBD"/>
			<stop  offset="0.9352" style="stop-color:#3290C6"/>
		</linearGradient>
		<path class="st15" d="M36.5,47.9c13.9,11.3,29.3,19,43.6,20.9c-2.3-14.9-15-34.5-54.8-55.8c-0.2-0.1-0.5-0.2-0.6-0.3
			c-0.6-0.3-1.2-0.5-1.7-0.8c-0.4-0.2-0.7-0.3-1.1-0.5c-0.3-0.1-0.6-0.3-0.8-0.3c-0.6-0.3-1.2-0.5-1.9-0.7c-0.1,0-0.2-0.1-0.3-0.1
			c-0.3-0.1-0.6-0.3-0.9-0.4c-1.2-0.4-2.4-1-3.7-1.4c-2.3-0.7-3.6,0.4-4.1,2.1c0,0.1-0.1,0.3-0.1,0.6c-0.1,0.2,0,0.5,0,0.8
			c0,0.1,0,0.1-0.1,0.2l0,0c0,0.8,0.2,2,0.7,3.5l0,0c0.2,0.7,0.5,1.4,0.8,2.1C15.7,27.3,25.9,39.3,36.5,47.9z"/>
		
			<linearGradient id="SVGID_17_" gradientUnits="userSpaceOnUse" x1="64.434" y1="122.901" x2="150.2779" y2="122.901" gradientTransform="matrix(0.9642 0.2653 0.2653 -0.9642 12.1812 144.7119)">
			<stop  offset="0.1724" style="stop-color:#4E5CA8"/>
			<stop  offset="0.9937" style="stop-color:#1FC3F3"/>
		</linearGradient>
		<path class="st16" d="M196.8,37.7c-4.3-0.6-13.8-0.8-32.6,3.1c-2.3,0.5-4.5,0.8-6.8,0.7c-2.4-0.2-5-0.9-7.3-1.6
			c-6-2-11.1-2.6-15.2-2.3c-3.6,0.3-7,1.4-9.9,3.4c-2.1,1.4-4.1,3.1-6,5.8c-3.1,4.2-9.6,17-18.5,20.4l0,0l0,0
			c7,6.6,17.8,12.1,27.9,8.8c9.7-3.2,15.7-11.8,17.6-14.6c4-5.9,6.2-8.1,6.4-8.4c0.5-0.5,4.2-4.8,11.9-7.4
			c11.4-3.8,28.6-6.1,32.7-6.5C197.5,38.7,197.4,37.8,196.8,37.7z"/>
		<ellipse transform="matrix(0.2653 -0.9642 0.9642 0.2653 56.6453 171.4881)" class="st17" cx="140.8" cy="48.6" rx="3" ry="3"/>
	</g>
</g>
<g>
	<g>
		<g>
			<path class="st18" d="M310.8,107.9c-12.4,0-22.5,10.1-22.5,22.5v6.7c0,12.4,10.1,22.5,22.5,22.5h14.3v-8.2h-14.3
				c-7.6,0-13.9-6-14.3-13.5h29.3c4.1,0,7.4-3.3,7.4-7.4C333.2,118,323.2,107.9,310.8,107.9z M296.5,129.6
				c0.4-7.5,6.7-13.5,14.3-13.5c7.6,0,13.9,6,14.3,13.5H296.5z"/>
			<path class="st18" d="M190.4,99.7h6v-8.2h-6c-4.6,0-8.9,1.9-12.1,5.2c-3.1,3.3-5,7.6-5,12.2v1h-4.7h-0.1v8.2h0.1h4.7v41.3h8.2
				v-41.3h10.9h0.1V110h-0.1h-10.9v-1C181.6,104,185.7,99.7,190.4,99.7z"/>
			<rect x="209.2" y="91.6" class="st18" width="8.2" height="68"/>
			<rect x="482" y="107.9" class="st19" width="8.2" height="51.5"/>
			<path class="st18" d="M266.8,138.5c0,7-5.7,12.9-12.9,12.9c-7,0-12.9-5.7-12.9-12.9v-30.6h-8v30.6c0,11.5,9.4,21,21,21
				s21-9.4,21-21v-30.6h-8.2V138.5z"/>
			<path class="st18" d="M362.4,107.9c-11.5,0-21,9.4-21,21v30.6h8.2v-30.6c0-7,5.7-12.9,12.9-12.9c7,0,12.9,5.7,12.9,12.9v30.6h8.2
				v-30.6C383.4,117.4,374,107.9,362.4,107.9z"/>
			<path class="st18" d="M406.9,142.1v-26h11l0,0V108h-11V91.6h-8.1v16.4h-7.2v8.2h7.2v26c0,9.3,7.6,17,17,17h3.6V151h-3.6
				C410.9,151,406.9,147,406.9,142.1z"/>
			<path class="st19" d="M516.5,142.1v-26h11l0,0V108h-11V91.6h-8.2v16.4h-7.2v8.2h7.2v26c0,9.3,7.6,17,17,17h3.6V151h-3.6
				C520.5,151,516.5,147,516.5,142.1z"/>
			<path class="st19" d="M436.6,91.6v20.9c3.5-2.8,8-4.4,12.9-4.4c11.5,0,21,9.4,21,21v3.3v1.2v5c0,11.5-9.4,21-21,21s-21-9.4-21-21
				v-1.5v-3.5v-1.2V129V91.6H436.6z M436.6,133.5v3.5v1.5c0,7,5.7,12.9,12.9,12.9c7,0,12.9-5.7,12.9-12.9v-5v-1.2v-3.3
				c0-7-5.7-12.9-12.9-12.9c-7,0-12.9,5.7-12.9,12.9v3.3V133.5z"/>
		</g>
	</g>
</g>
</svg>
